<svg id="Icons" enable-background="new 0 0 512 512" height="512" viewBox="0 0 512 512" width="512" xmlns="http://www.w3.org/2000/svg"><g><g><path d="m512 256c0 76.88-33.9 145.86-87.56 192.78-2.51 2.2-5.06 4.34-7.65 6.43-43.95 35.52-99.89 56.79-160.79 56.79-15.17 0-30.04-1.32-44.48-3.86-26.84-4.7-52.25-13.58-75.51-25.95-28.21-14.99-53.27-35.1-73.96-59.1-14.69-17.03-27.17-36.02-37-56.53-11.39-23.73-19.22-49.5-22.81-76.61-1.48-11.1-2.24-22.44-2.24-33.95 0-72.65 30.27-138.24 78.88-184.84 2.71-2.59 5.47-5.13 8.29-7.6 45.07-39.56 104.15-63.56 168.83-63.56 131.12 0 239.22 98.58 254.22 225.67.52 4.42.93 8.87 1.22 13.35.37 5.61.56 11.27.56 16.98z" fill="#2d2667"/><g fill="#9175a7"><path d="m417.022 385.51c0-4.142-3.358-7.5-7.5-7.5-9.928.343-9.926 14.658 0 15 4.142 0 7.5-3.358 7.5-7.5z"/><path d="m372.143 353.043c0-4.142-3.358-7.5-7.5-7.5-9.928.343-9.926 14.658 0 15 4.142 0 7.5-3.357 7.5-7.5z"/><path d="m338.307 405.263c0-4.142-3.358-7.5-7.5-7.5-9.928.343-9.926 14.658 0 15 4.142 0 7.5-3.358 7.5-7.5z"/><path d="m359.606 437.378c0-4.142-3.358-7.5-7.5-7.5-9.928.343-9.926 14.658 0 15 4.142 0 7.5-3.358 7.5-7.5z"/><path d="m424.52 447.72c0 .36-.03.71-.08 1.06-2.51 2.2-5.06 4.34-7.65 6.43-9.761-.616-9.557-14.665.23-14.99 4.14 0 7.5 3.36 7.5 7.5z"/><path d="m305.858 482.953c0-4.142-3.358-7.5-7.5-7.5-9.928.343-9.926 14.658 0 15 4.142 0 7.5-3.358 7.5-7.5z"/><path d="m403.462 316.16c0-4.142-3.358-7.5-7.5-7.5-9.928.343-9.926 14.659 0 15 4.143 0 7.5-3.357 7.5-7.5z"/><path d="m469.244 282.33c0-4.142-3.358-7.5-7.5-7.5-9.928.343-9.926 14.658 0 15 4.143 0 7.5-3.358 7.5-7.5z"/><path d="m479.895 339.508c0-4.142-3.358-7.5-7.5-7.5-9.928.343-9.926 14.658 0 15 4.142 0 7.5-3.358 7.5-7.5z"/><path d="m395.962 246.811c0-4.142-3.358-7.5-7.5-7.5-9.928.343-9.926 14.658 0 15 4.143 0 7.5-3.358 7.5-7.5z"/><path d="m511.44 239.02c-4.792 3.136-11.568-.598-11.44-6.37-.115-5.166 5.466-8.963 10.22-6.98.52 4.42.93 8.87 1.22 13.35z"/><path d="m330.807 266.053c0-4.142-3.358-7.5-7.5-7.5-9.928.343-9.926 14.658 0 15 4.142 0 7.5-3.358 7.5-7.5z"/><path d="m469.244 195.356c0-4.142-3.358-7.5-7.5-7.5-9.928.343-9.926 14.658 0 15 4.143 0 7.5-3.358 7.5-7.5z"/><path d="m454.244 118.706c0-4.142-3.358-7.5-7.5-7.5-9.928.343-9.926 14.658 0 15 4.143 0 7.5-3.358 7.5-7.5z"/><path d="m360.152 40.394c0-4.142-3.358-7.5-7.5-7.5-9.928.343-9.926 14.658 0 15 4.142 0 7.5-3.358 7.5-7.5z"/><path d="m277.006 17.84c0-4.142-3.358-7.5-7.5-7.5-9.928.343-9.926 14.658 0 15 4.143 0 7.5-3.358 7.5-7.5z"/><path d="m251.545 51.044c0-4.142-3.358-7.5-7.5-7.5-9.928.343-9.926 14.658 0 15 4.142 0 7.5-3.358 7.5-7.5z"/><path d="m207.778 32.894c0-4.142-3.358-7.5-7.5-7.5-9.928.343-9.926 14.658 0 15 4.142 0 7.5-3.358 7.5-7.5z"/><path d="m215.278 98.676c0-4.142-3.358-7.5-7.5-7.5-9.928.343-9.926 14.658 0 15 4.142 0 7.5-3.358 7.5-7.5z"/><path d="m157.385 71.04c0-4.142-3.358-7.5-7.5-7.5-9.928.343-9.926 14.658 0 15 4.142 0 7.5-3.358 7.5-7.5z"/><path d="m119.87 118.739c0-4.142-3.358-7.5-7.5-7.5-9.928.343-9.926 14.658 0 15 4.142 0 7.5-3.358 7.5-7.5z"/><path d="m154.639 157.488c0-4.142-3.358-7.5-7.5-7.5-9.928.343-9.926 14.658 0 15 4.142 0 7.5-3.358 7.5-7.5z"/><path d="m93.869 186.12c0-4.142-3.358-7.5-7.5-7.5-9.928.343-9.926 14.658 0 15 4.142 0 7.5-3.358 7.5-7.5z"/><path d="m58.382 150.692c0-4.142-3.358-7.5-7.5-7.5-9.928.343-9.926 14.658 0 15 4.142 0 7.5-3.358 7.5-7.5z"/><path d="m36.617 213.721c0-4.142-3.358-7.5-7.5-7.5-9.928.343-9.926 14.658 0 15 4.142 0 7.5-3.358 7.5-7.5z"/><path d="m222.778 157.488c0-4.142-3.358-7.5-7.5-7.5-9.928.343-9.926 14.658 0 15 4.142 0 7.5-3.358 7.5-7.5z"/><path d="m93.87 71.02c-.331 9.842-14.491 9.967-14.99.14 2.71-2.59 5.47-5.13 8.29-7.6 3.76.4 6.7 3.59 6.7 7.46z"/></g></g><g><g id="Earth_2_"><path d="m312.33 357.8c0 67.9-41.66 126.07-100.81 150.34-108.112-18.004-195.827-109.396-209.28-218.19 73.514-156.01 307.695-107.121 310.09 67.85z" fill="#57409b"/><path d="m275.03 357.8c.466 67.95-56.056 125.544-125.15 125.15-4.69 0-9.32-.26-13.87-.76-48.299-25.663-87.342-66.347-110.96-115.63-5.651-71.495 53.167-134.581 124.83-133.91 33.855-.18 67.348 14.216 90.599 38.81 22.062 23.011 34.679 54.405 34.551 86.34z" fill="#22a8b9"/><path d="m275.026 357.803c.059 25.398-7.848 50.719-22.44 71.51-.554.814-1.065 1.7-1.97 2.16-1.733 1.206-3.493 2.431-5.28 3.53-5.923 3.795-12.203 7.007-18.67 9.75-46.23 19.564-101.441 8.726-136.73-27.02-35.193-34.793-46.286-88.832-27.83-134.72h.01c.852-2.199 1.823-4.369 2.81-6.51 1.373-2.956 2.869-5.856 4.47-8.7.01 0 .01-.01.02-.01 2.25-4 4.7-7.88 7.39-11.59 20.56-14.82 45.79-23.55 73.07-23.55 21.08-.03 42.153 5.355 60.57 15.62 39.365 21.457 64.951 64.629 64.58 109.53z" fill="#cde6f6"/><path d="m130.432 251.869c-22.333 0-43.296 5.855-61.446 16.108-60.927 110.858 59.705 231.395 170.486 170.485 47.181-81.591-14.156-187.567-109.04-186.593z" fill="#4fcae8"/><g fill="#50755c"><path d="m265.295 309.333-19.04 19.04-17.09 17.09c-10.06 10.06-24.78 12.62-37.22 7.68.69 2.09 1.06 4.33 1.06 6.65v20.35c-.001.19-.018.38 0 .56v41.65c0 9.47-7.68 17.15-17.15 17.15h-16.33c-9.47 0-17.15-7.68-17.15-17.15v-20.83h-22.66c-11.81 0-21.38-9.57-21.38-21.38v-20.35c0-11.81 9.57-21.38 21.38-21.38h51.91c.57 0 1.13.03 1.68.07l-16.29-16.29c-13.49-13.49-13.49-35.38 0-48.88 8.21-8.223 25.503-25.493 33.8-33.8 33.241 11.342 60.977 37.41 74.48 69.82z"/><path d="m72.64 314.28v83.92c0 9.78-4.06 18.61-10.59 24.89-14.69-17.03-27.17-36.02-37-56.53-2.305-30.823 7.528-61.603 25.28-84.59 13.208 5.022 22.279 17.608 22.31 32.31z"/><path d="m265.705 405.263c-7.803 19.084-20.445 36.141-36.36 49.23-3.53-1.52-6.45-4.2-8.27-7.56h-.01c-1.32-2.43-2.07-5.22-2.07-8.19v-16.33c0-9.47 7.68-17.15 17.15-17.15z"/></g><path d="m60.315 287.833c7.53 6.34 12.32 15.83 12.32 26.45v81.83c-19.912-30.457-25.132-73.075-12.33-108.29" fill="#528f66"/><path d="m216.465 448.503c1.54-.49 3.08-1.02 4.6-1.57-1.52.56-3.049 1.08-4.6 1.57z" fill="#53b976"/><path d="m265.705 405.263c-3.703 9.029-8.468 17.621-14.17 25.54-3.731 2.716-7.624 5.183-11.65 7.46 0 .01-.01.01-.01.02-4.314 2.443-8.797 4.606-13.36 6.53-.047.01-.101.028-.14.05-1.748.735-3.525 1.431-5.31 2.07-1.32-2.43-2.07-5.22-2.07-8.19v-16.33c0-9.47 7.68-17.15 17.15-17.15z" fill="#53b976"/><path d="m265.295 309.333-19.04 19.04-17.09 17.09c-10.06 10.06-24.78 12.62-37.22 7.68.69 2.09 1.06 4.33 1.06 6.65v20.35c-.001.19-.018.38 0 .56v41.65c0 9.47-7.68 17.15-17.15 17.15h-16.33c-9.47 0-17.15-7.68-17.15-17.15v-20.83h-22.66c-11.81 0-21.38-9.57-21.38-21.38v-20.35c0-11.81 9.57-21.38 21.38-21.38h51.91c.57 0 1.13.03 1.68.07l-16.29-16.29c-13.49-13.49-13.49-35.38 0-48.88 8.21-8.223 25.503-25.493 33.8-33.8 33.241 11.342 60.977 37.41 74.48 69.82z" fill="#53b976"/><path d="m229.165 345.463c-10.06 10.06-24.78 12.62-37.22 7.68.69 2.09 1.06 4.33 1.06 6.65v20.35c-.001.19-.018.38 0 .56v41.65c0 9.47-7.68 17.15-17.15 17.15h-16.33c-9.47 0-17.15-7.68-17.15-17.15v-20.83h-22.66c-11.81 0-21.38-9.57-21.38-21.38v-20.35c0-11.81 9.57-21.38 21.38-21.38h51.91c.57 0 1.13.03 1.68.07l-16.29-16.29c-13.49-13.49-13.49-35.38 0-48.88l14.76-14.76c33.64 11.63 60.77 37.21 74.48 69.82z" fill="#528f66"/><path d="m252.745 405.263c-2.73 11.72-7.1 22.82-12.87 33.02-5.989 3.381-12.287 6.298-18.81 8.65-1.32-2.43-2.07-5.22-2.07-8.19v-16.33c0-9.47 7.68-17.15 17.15-17.15z" fill="#528f66"/></g><path d="m200.278 179.796c-24.172 0-43.767 19.595-43.767 43.767 0 17.365 22.587 58.467 35.309 80.24 3.784 6.477 13.132 6.477 16.916 0 12.722-21.773 35.309-62.875 35.309-80.24 0-24.172-19.595-43.767-43.767-43.767zm0 61.211c-9.634 0-17.444-7.81-17.444-17.444.919-23.138 33.971-23.132 34.887 0 .001 9.634-7.809 17.444-17.443 17.444z" fill="#e9465e"/></g><g><g id="Speech-bubble_9_"><path d="m292.053 250.434c3.456 0 6.843-1.688 8.877-4.796l34.176-52.232c7.225-12.045-9.556-23.068-17.733-11.603 0 0-34.176 52.232-34.176 52.232-4.653 6.881.614 16.528 8.856 16.399z" fill="#ebd9ea"/><path d="m428.406 103.916v66.177c.03 22.157-17.964 40.407-40.396 40.404h-102.345c-22.434.003-40.423-18.254-40.396-40.404v-66.177c-.026-22.152 17.967-40.397 40.396-40.396h102.345c22.428-.001 40.424 18.237 40.396 40.396z" fill="#ebd9ea"/><path d="m428.406 103.916v66.177c0 9.335-3.162 17.921-8.473 24.767-5.318-6.846-8.48-15.432-8.48-24.767v-66.177c0-9.335 3.162-17.921 8.48-24.76 5.31 6.839 8.473 15.425 8.473 24.76z" fill="#fff"/><path d="m262.22 103.916v66.177c0 9.335-3.162 17.921-8.473 24.767-5.318-6.846-8.48-15.432-8.48-24.767v-66.177c0-9.335 3.162-17.921 8.48-24.76 5.311 6.839 8.473 15.425 8.473 24.76z" fill="#c1b7d3"/></g><g><g><path d="m379.18 128.194c1.896-.851 4.039.536 4.039 2.614v19.441c0 15.667-18.572 28.371-41.473 28.371s-41.473-12.704-41.473-28.371v-19.441c0-2.078 2.143-3.465 4.039-2.614l36.26 16.277c.746.335 1.6.335 2.347 0z" fill="#2d2667"/><g><path d="m346.195 173.719c-4.393-.055-5.055-6.389-.7-7.306 11.97-2.33 21.431-8.377 25.308-16.177.906-1.823 3.118-2.567 4.942-1.66 1.823.906 2.566 3.119 1.66 4.942-4.904 9.918-16.899 17.832-31.21 20.201z" fill="#57409b"/></g></g><g><path d="m406.768 121.834-63.633 28.56c-.883.397-1.894.397-2.778 0l-63.633-28.56c-2.671-1.199-2.671-4.99 0-6.189l63.633-28.56c.883-.397 1.894-.397 2.778 0l63.633 28.56c2.671 1.198 2.671 4.99 0 6.189z" fill="#57409b"/><g><path d="m384.39 121.277c-.557 0-1.123-.115-1.664-.358l-39.497-17.727c-2.051-.92-2.967-3.328-2.046-5.379.92-2.051 3.328-2.966 5.379-2.046l39.497 17.727c3.982 1.805 2.651 7.788-1.669 7.783z" fill="#6c53a2"/></g></g><g><g><path d="m283.234 129.42v22.367h-6.636v-23.299c0-1.654 1.705-2.758 3.214-2.08l2.075.931c.82.368 1.347 1.183 1.347 2.081z" fill="#2d2667"/></g><path d="m290.328 154.577c.039 5.615-4.61 10.433-10.411 10.411-13.812-.546-13.803-20.28 0-20.828 5.603-.072 10.454 4.682 10.411 10.417z" fill="#2d2667"/><path d="m287.917 180.53c-.777.469-1.621.696-2.558.7h-10.882c-3.679 0-6.112-3.812-4.571-7.144l4.416-9.563c.826-1.784 2.61-2.927 4.571-2.927h2.05c1.943.001 3.755 1.146 4.571 2.927 0 0 4.416 9.563 4.416 9.563 1.142 2.47.095 5.205-2.013 6.444z" fill="#2d2667"/><g fill="#57409b"><path d="m287.917 180.53c-.863-.509-1.57-1.275-2.005-2.219l-4.416-9.563c-1.143-2.477-.096-5.205 2.013-6.444.863.509 1.57 1.275 2.005 2.219l4.416 9.563c1.142 2.47.095 5.205-2.013 6.444z"/><path d="m290.328 154.577c0 1.342-.251 2.617-.715 3.797-8.012 4.439-14.043-9.847-6.422-13.691 4.157 1.361 7.142 5.348 7.137 9.894z"/></g></g></g></g></g></svg>