<svg id="Layer_1" enable-background="new 0 0 512 512" height="512" viewBox="0 0 512 512" width="512" xmlns="http://www.w3.org/2000/svg"><g><path d="m483.199 74.68v389.821c0 4.14-3.36 7.5-7.5 7.5h-370.943c-13.08 0-23.71-10.66-23.71-23.76v-424.481c0-13.1 10.63-23.76 23.71-23.76h303.763c1.99 0 3.9.79 5.3 2.2l49.38 49.38 17.8 17.8c1.41 1.4 2.2 3.31 2.2 5.3z" fill="#d9f0f4"/><path d="m483.199 74.68v389.821c0 4.14-3.36 7.5-7.5 7.5h-12.5v-420.421l17.8 17.8c1.41 1.4 2.2 3.31 2.2 5.3z" fill="#bae1e5"/><path d="m196.629 154.497h200.866c2.832 0 5.128 2.296 5.128 5.128v19.744c0 2.832-2.296 5.128-5.128 5.128h-200.866c-2.832 0-5.128-2.296-5.128-5.128v-19.744c0-2.832 2.296-5.128 5.128-5.128z" fill="#9fccce"/><path d="m196.629 96.497h170.866c2.832 0 5.128 2.296 5.128 5.128v19.744c0 2.832-2.296 5.128-5.128 5.128h-170.866c-2.832 0-5.128-2.296-5.128-5.128v-19.744c0-2.832 2.296-5.128 5.128-5.128z" fill="#9fccce"/><path d="m483.199 74.68v7.5h-74.681c-4.14 0-7.5-3.36-7.5-7.5v-74.68h7.5c1.99 0 3.9.79 5.3 2.2l49.38 49.38 17.8 17.8c1.411 1.4 2.201 3.31 2.201 5.3z" fill="#bae1e5"/><g fill="#90abbd"><path d="m412.462 258.147h-60.036c-4.143 0-7.5 3.357-7.5 7.5s3.357 7.5 7.5 7.5h60.036c4.143 0 7.5-3.357 7.5-7.5 0-4.142-3.357-7.5-7.5-7.5z"/><path d="m151.779 273.147h171.038c4.143 0 7.5-3.357 7.5-7.5s-3.357-7.5-7.5-7.5h-171.038c-4.142 0-7.5 3.357-7.5 7.5s3.358 7.5 7.5 7.5z"/><path d="m382.462 293.148h-158.858c-4.142 0-7.5 3.357-7.5 7.5s3.358 7.5 7.5 7.5h158.858c4.143 0 7.5-3.357 7.5-7.5s-3.357-7.5-7.5-7.5z"/><path d="m151.779 308.148h41.341c4.142 0 7.5-3.357 7.5-7.5s-3.358-7.5-7.5-7.5h-41.341c-4.142 0-7.5 3.357-7.5 7.5 0 4.142 3.358 7.5 7.5 7.5z"/><path d="m304.461 328.148h-152.682c-4.142 0-7.5 3.357-7.5 7.5s3.358 7.5 7.5 7.5h152.682c4.143 0 7.5-3.357 7.5-7.5s-3.357-7.5-7.5-7.5z"/><path d="m294.461 363.148h-142.682c-4.142 0-7.5 3.357-7.5 7.5s3.358 7.5 7.5 7.5h142.682c4.143 0 7.5-3.357 7.5-7.5s-3.357-7.5-7.5-7.5z"/><path d="m284.461 398.148h-132.682c-4.142 0-7.5 3.357-7.5 7.5s3.358 7.5 7.5 7.5h132.682c4.143 0 7.5-3.357 7.5-7.5s-3.357-7.5-7.5-7.5z"/></g><g><path d="m512 416.71c0 52.54-42.77 95.29-95.341 95.29-3.38 0-6.72-.18-10-.52-47.89-5.02-85.341-45.61-85.341-94.77s37.45-89.75 85.341-94.77c3.28-.34 6.62-.52 10-.52 52.571-.001 95.341 42.749 95.341 95.29z" fill="#4dd4f7"/><path d="m512 416.71c0 52.54-42.77 95.29-95.341 95.29-3.38 0-6.72-.18-10-.52 47.891-5.02 85.341-45.61 85.341-94.77s-37.45-89.75-85.341-94.77c3.28-.34 6.62-.52 10-.52 52.571-.001 95.341 42.749 95.341 95.29z" fill="#00c2f3"/></g><path d="m441.245 444.866c-6.803 5.949-15.533 9.226-24.583 9.226-20.611 0-37.38-16.769-37.38-37.38s16.769-37.38 37.38-37.38c9.047 0 17.779 3.274 24.587 9.22 3.121 2.725 7.858 2.403 10.583-.716 2.725-3.12 2.403-7.858-.716-10.583-9.542-8.332-21.777-12.921-34.454-12.921-28.883 0-52.38 23.497-52.38 52.38s23.497 52.38 52.38 52.38c12.683 0 24.92-4.594 34.458-12.935 3.118-2.727 3.435-7.465.708-10.583-2.726-3.117-7.464-3.437-10.583-.708z" fill="#fff"/><g><path d="m199.438 92.722v95.551c0 13.754-11.18 24.93-24.94 24.93h-26.57l-16.05 23.111c-1.4 2.019-3.7 3.229-6.16 3.229s-4.76-1.21-6.16-3.229l-16.04-23.111h-78.578c-13.75 0-24.94-11.175-24.94-24.93v-95.551c0-13.744 11.19-24.93 24.94-24.93h149.559c13.759 0 24.939 11.186 24.939 24.93z" fill="#ff6b81"/><path d="m131.998 115.802c-.001 0-.001 0 0 0-8.737-8.733-22.961-8.725-31.706.018l-.573.573-.573-.573c-4.235-4.234-9.865-6.568-15.852-6.573h-.017c-5.983 0-11.607 2.328-15.835 6.555-4.233 4.231-6.562 9.859-6.559 15.846.005 5.985 2.34 11.612 6.576 15.847l28.724 28.712c.976.976 2.256 1.464 3.535 1.464s2.56-.488 3.535-1.464l28.724-28.713c8.748-8.742 8.757-22.959.021-31.692z" fill="#fff"/><path d="m199.438 92.722v95.551c0 13.754-11.18 24.93-24.94 24.93h-20c13.76 0 24.94-11.175 24.94-24.93v-95.551c0-13.744-11.18-24.93-24.94-24.93h20c13.76 0 24.94 11.186 24.94 24.93z" fill="#ed2061"/></g><path d="m483.199 74.68v7.5h-20v-30.6l17.8 17.8c1.41 1.4 2.2 3.31 2.2 5.3z" fill="#9fccce"/></g></svg>