<svg id="Capa_1" enable-background="new 0 0 512 512" height="512" viewBox="0 0 512 512" width="512" xmlns="http://www.w3.org/2000/svg"><g><g><path d="m366.023 512h-321.989c-16.101 0-29.154-13.053-29.154-29.154v-453.692c0-16.101 13.052-29.154 29.154-29.154h321.989c16.101 0 29.154 13.053 29.154 29.154v453.692c0 16.101-13.052 29.154-29.154 29.154z" fill="#ffe8d2"/><path d="m366.017 0h-26.89v132.608c0 176.034-142.765 318.738-318.875 318.738h-5.372v31.506c0 16.098 13.055 29.148 29.16 29.148h321.977c16.105 0 29.16-13.05 29.16-29.148v-453.704c0-16.098-13.056-29.148-29.16-29.148z" fill="#f7d4ad"/><g><path d="m353.161 353.798h-269.91c-4.285 0-7.758-3.472-7.758-7.755s3.473-7.755 7.758-7.755h269.911c4.285 0 7.758 3.472 7.758 7.755s-3.473 7.755-7.759 7.755z" fill="#e2a876"/></g><g><path d="m353.161 395.458h-269.91c-4.285 0-7.758-3.472-7.758-7.755s3.473-7.755 7.758-7.755h269.911c4.285 0 7.758 3.472 7.758 7.755s-3.473 7.755-7.759 7.755z" fill="#e2a876"/></g><g><path d="m353.161 437.119h-269.91c-4.285 0-7.758-3.472-7.758-7.755s3.473-7.755 7.758-7.755h269.911c4.285 0 7.758 3.472 7.758 7.755 0 4.284-3.473 7.755-7.759 7.755z" fill="#e2a876"/></g><g><path d="m353.161 478.78h-269.91c-4.285 0-7.758-3.472-7.758-7.755s3.473-7.755 7.758-7.755h269.911c4.285 0 7.758 3.472 7.758 7.755s-3.473 7.755-7.759 7.755z" fill="#e2a876"/></g><g><path d="m353.161 270.476h-269.91c-4.285 0-7.758-3.472-7.758-7.755s3.473-7.755 7.758-7.755h269.911c4.285 0 7.758 3.472 7.758 7.755s-3.473 7.755-7.759 7.755z" fill="#e2a876"/></g><g><path d="m353.161 312.136h-269.91c-4.285 0-7.758-3.472-7.758-7.755s3.473-7.755 7.758-7.755h269.911c4.285 0 7.758 3.472 7.758 7.755 0 4.284-3.473 7.755-7.759 7.755z" fill="#e2a876"/></g><g fill="#e2a876"><ellipse cx="54.712" cy="346.042" rx="7.758" ry="7.755"/><ellipse cx="54.712" cy="262.721" rx="7.758" ry="7.755"/><ellipse cx="54.712" cy="304.382" rx="7.758" ry="7.755"/><ellipse cx="54.712" cy="387.703" rx="7.758" ry="7.755"/><ellipse cx="54.712" cy="429.364" rx="7.758" ry="7.755"/><ellipse cx="54.712" cy="471.025" rx="7.758" ry="7.755"/></g><g><g><path d="m243.52 213.762h-77.347c-11.949 0-20.945-10.876-18.696-22.604l3.038-15.868c.873-4.552 2.64-8.796 5.147-12.524 3.96-5.941 9.771-10.583 16.713-13.103l32.692-11.854 32.44 11.763c6.977 2.534 12.808 7.211 16.775 13.201v.007c2.542 3.819 4.316 8.161 5.154 12.824l2.822 15.777c2.088 11.666-6.879 22.381-18.738 22.381z" fill="#b8b6ff"/><path d="m222.956 144.342-18.291 15.96-18.279-15.96v-24.5h36.57z" fill="#ecbd83"/><path d="m233.714 76.625v20.765c0 16.283-13.332 29.997-29.619 29.683-15.784-.304-28.48-13.188-28.48-29.033v-21.415c0-16.037 13.006-24.406 29.049-24.406 16.045 0 29.05 8.369 29.05 24.406z" fill="#f7d4ad"/><g fill="#a09eef"><path d="m174.47 185.727v28.036h-8.297c-11.949 0-20.945-10.876-18.696-22.604l3.038-15.868c.873-4.552 2.64-8.796 5.147-12.524 10.734 2.143 18.808 11.609 18.808 22.96z"/><path d="m243.52 213.762h-7.997v-28.036c0-11.33 8.053-20.789 18.759-22.946 2.542 3.819 4.316 8.161 5.154 12.824l2.822 15.777c2.088 11.666-6.879 22.381-18.738 22.381z"/></g></g><path d="m233.714 75.209c-1.088.834-1.897 1.433-1.897 1.433-2.058 1.188-4.292 2.276-6.687 3.237-10.894 4.358-21.545 4.518-26.697.91 0 0-5.38-4.012-7.395-6.574s-8.424-3.211-13.736 2.427c-.557.59-1.122.978-1.686 1.205v-1.205c0-16.048 13.011-29.054 29.066-29.054 8.028 0 15.296 3.253 20.549 8.513 4.95 4.939 8.121 11.648 8.483 19.108z" fill="#6e4848"/></g></g><path d="m424.101 348.555-26.369-20.637c-1.5-1.174-3.609-1.174-5.109 0l-26.369 20.637c-2.72 2.129-6.699.192-6.699-3.262v-147.958c0-2.288 1.855-4.142 4.144-4.142h62.957c2.289 0 4.144 1.855 4.144 4.142v147.959c0 3.453-3.979 5.39-6.699 3.261z" fill="#ff445c"/><path d="m497.12 140.144c0 13.006-14.132 23.107-18.824 34.416-4.864 11.722-2.204 28.815-11.043 37.648-8.837 8.832-25.929 6.161-37.655 11.021-11.31 4.687-21.415 18.817-34.421 18.817s-23.111-14.13-34.421-18.817c-11.726-4.859-28.817-2.189-37.655-11.021-8.839-8.833-6.178-25.926-11.042-37.648-4.693-11.309-18.824-21.411-18.824-34.416 0-13.006 14.132-23.107 18.825-34.416 4.864-11.722 2.204-28.815 11.043-37.648 8.837-8.832 25.929-6.161 37.655-11.021 11.31-4.687 21.415-18.817 34.421-18.817s23.111 14.13 34.421 18.817c11.726 4.859 28.817 2.189 37.655 11.021 8.839 8.833 6.178 25.926 11.042 37.648 4.691 11.309 18.823 21.41 18.823 34.416z" fill="#ff8b59"/><path d="m396.867 89.746 16.372 24.445c.269.401.671.694 1.136.825l28.318 8.01c1.393.394 1.94 2.076 1.044 3.213l-18.199 23.118c-.299.379-.453.853-.434 1.335l1.129 29.395c.056 1.446-1.376 2.486-2.734 1.986l-27.62-10.157c-.453-.167-.951-.167-1.404 0l-27.62 10.157c-1.359.5-2.79-.54-2.735-1.986l1.129-29.395c.019-.482-.135-.956-.434-1.335l-18.199-23.118c-.895-1.137-.349-2.819 1.044-3.213l28.318-8.01c.465-.131.868-.424 1.136-.825l16.372-24.445c.807-1.203 2.576-1.203 3.381 0z" fill="#fee07d"/></g></svg>