<svg height="512" viewBox="0 0 512 512" width="512" xmlns="http://www.w3.org/2000/svg"><g id="Flat"><path d="m88 280h8a0 0 0 0 1 0 0v32a0 0 0 0 1 0 0h-8a16 16 0 0 1 -16-16 16 16 0 0 1 16-16z" fill="#f2c194"/><path d="m224 280h8a0 0 0 0 1 0 0v32a0 0 0 0 1 0 0h-8a16 16 0 0 1 -16-16 16 16 0 0 1 16-16z" fill="#f2c194" transform="matrix(-1 0 0 -1 440 592)"/><path d="m208 256v56a56 56 0 1 1 -112 0v-56z" fill="#f4ceaf"/><path d="m280 492.39v3.61h-256v-3.61a99.02107 99.02107 0 0 1 71.96-95.2301h.01c.48-.12988.97-.2699 1.46-.3999a100.06013 100.06013 0 0 1 13.29-2.6001 19.60707 19.60707 0 0 0 10.87-5.0299 18.82016 18.82016 0 0 0 1.47-1.49 19.67293 19.67293 0 0 0 4.94-13.06v-14.58h48v14.58a19.74736 19.74736 0 0 0 17.28 19.57995 100.06013 100.06013 0 0 1 13.29 2.6001c.49.13.98.27 1.46.3999h.01a99.01575 99.01575 0 0 1 71.96 95.23005z" fill="#f4ceaf"/><path d="m208 296v16a56 56 0 1 1 -112 0v-16l16.97 16.97a24.01057 24.01057 0 0 0 16.97 7.03h44.12a24.01057 24.01057 0 0 0 16.97-7.03z" fill="#ad7d4d"/><path d="m152 350.61328a30.53212 30.53212 0 0 1 -21.65674-8.95654 7.99984 7.99984 0 0 1 11.31348-11.31348 14.62791 14.62791 0 0 0 20.68652 0 7.99984 7.99984 0 0 1 11.31348 11.31348 30.53212 30.53212 0 0 1 -21.65674 8.95654z" fill="#f2c194"/><path d="m224 254.63a22.584 22.584 0 0 1 -6.63 16l-9.37 9.37-40-16-33.93 11.31006-.19.05994a89.98858 89.98858 0 0 1 -28.51 4.63 22.58425 22.58425 0 0 1 -16-6.63l-9.37-9.37a22.62742 22.62742 0 0 1 32-32 11.29853 11.29853 0 0 0 16 0l13.66-13.66a42.85266 42.85266 0 0 1 60.68006 0 7.99116 7.99116 0 0 1 0 11.32l-2.34006 2.34h1.37a22.6277 22.6277 0 0 1 22.63 22.63z" fill="#ad7d4d"/><circle cx="128" cy="296" fill="#966342" r="8"/><circle cx="176" cy="296" fill="#966342" r="8"/><path d="m280 492.39v3.61h-256v-3.61a99.00746 99.00746 0 0 1 71.97-95.2301 71.90279 71.90279 0 0 0 112.06006 0 99.01115 99.01115 0 0 1 71.96994 95.2301z" fill="#c4d4e0"/><path d="m208.03 397.15991a71.90279 71.90279 0 0 1 -112.06006 0c.48-.12988.97-.2699 1.46-.3999a100.06013 100.06013 0 0 1 13.29-2.6001 19.60707 19.60707 0 0 0 10.87006-5.02991 47.97255 47.97255 0 0 0 60.81994 0 19.60707 19.60707 0 0 0 10.87006 5.02991 100.06013 100.06013 0 0 1 13.29 2.6001c.49.12999.98.26999 1.46.3999z" fill="#a6b2bc"/><path d="m120 496h-96v-3.61a98.97221 98.97221 0 0 1 45.72-83.43q1.125-.72 2.28-1.40991a99.13129 99.13129 0 0 1 25.43-10.79l13.06 43.54 2.61 8.71a163.3573 163.3573 0 0 1 6.9 46.98991z" fill="#396795"/><path d="m110.49 440.30005-38.49 7.69995v-40.44995a99.13129 99.13129 0 0 1 25.43-10.79z" fill="#26507a"/><path d="m280 492.39v3.61h-96a163.3573 163.3573 0 0 1 6.9-46.99l2.61-8.71 13.06-43.54a99.13129 99.13129 0 0 1 25.43 10.79q1.155.68994 2.28 1.40991a99.013 99.013 0 0 1 45.72 83.43009z" fill="#396795"/><g fill="#26507a"><path d="m232 407.55005v40.44995l-38.49-7.7 13.06-43.54a99.13129 99.13129 0 0 1 25.43 10.79005z"/><path d="m224 480h16v16h-16z"/><path d="m64 480h16v16h-16z"/></g><rect fill="#eedc9a" height="176" rx="88" width="256" x="232" y="24"/><circle cx="248" cy="216" fill="#eedc9a" r="16"/><path d="m456 136v24h-156.32a80.00206 80.00206 0 1 1 156.32-24z" fill="#e44b4d"/><path d="m432 136v24h-106.61a56.00525 56.00525 0 1 1 106.61-24z" fill="#e88604"/><path d="m408 136v24h-53.15a31.99561 31.99561 0 1 1 53.15-24z" fill="#396795"/><path d="m384 144a15.99559 15.99559 0 0 1 -16 16h-80a24 24 0 0 1 0-48 32.00463 32.00463 0 0 1 63.52-5.57 16.00361 16.00361 0 0 1 21.78 22.47 16.00923 16.00923 0 0 1 10.7 15.1z" fill="#8acce7"/><path d="m224 254.63a22.584 22.584 0 0 1 -6.63 16l-9.37 9.37-40-16 32-32h1.37a22.6277 22.6277 0 0 1 22.63 22.63z" fill="#966342"/></g></svg>