<svg id="Capa_1" enable-background="new 0 0 512 512" height="512" viewBox="0 0 512 512" width="512" xmlns="http://www.w3.org/2000/svg"><g><path d="m291.909 438.4h-14.75-42.317-14.75c-29.352 0-53.146 23.794-53.146 53.146v13.686c0 3.738 3.03 6.769 6.769 6.769h164.572c3.738 0 6.769-3.03 6.769-6.769v-13.686c-.001-29.352-23.796-53.146-53.147-53.146z" fill="#80b4fb"/><path d="m291.909 438.4h-25.896c29.352 0 53.146 23.794 53.146 53.146v13.686c0 3.738-3.03 6.769-6.769 6.769h25.896c3.738 0 6.769-3.03 6.769-6.769v-13.686c-.001-29.352-23.795-53.146-53.146-53.146z" fill="#61a2f9"/><path d="m130.135 223.912v117.991c0 7.565 6.133 13.698 13.698 13.698h224.333c7.565 0 13.698-6.133 13.698-13.698v-117.991c0-27.79-22.528-50.318-50.318-50.318-8.552 0-16.844 2.941-23.485 8.329l-2.76 2.24c-.838.68-2.024.724-2.91.108l-5.757-4.004c-6.246-4.344-13.673-6.673-21.282-6.673h-94.9c-27.788.001-50.317 22.529-50.317 50.318z" fill="#365e7d"/><g><path d="m331.547 173.595c-4.251 0-8.437.728-12.388 2.12 20.738 6.215 35.854 25.437 35.854 48.197v117.991c0 7.565-6.133 13.698-13.698 13.698h26.852c7.565 0 13.698-6.133 13.698-13.698v-117.991c0-27.789-22.529-50.317-50.318-50.317z" fill="#2b4d66"/></g><path d="m416.191 0h-320.382c-7.665 0-13.879 6.213-13.879 13.878v86.433c0 7.665 6.213 13.878 13.878 13.878h41.737c.787 0 1.514.42 1.907 1.101l9.719 16.834c.848 1.468 2.967 1.468 3.815 0l9.719-16.834c.393-.681 1.121-1.101 1.907-1.101h77.853c.787 0 1.514.42 1.907 1.101l9.719 16.834c.848 1.468 2.967 1.468 3.815 0l9.719-16.834c.393-.681 1.121-1.101 1.907-1.101h77.853c.787 0 1.514.42 1.907 1.101l9.719 16.834c.848 1.468 2.967 1.468 3.815 0l9.719-16.834c.393-.681 1.121-1.101 1.907-1.101h41.737c7.665 0 13.878-6.213 13.878-13.878v-86.433c.003-7.665-6.211-13.878-13.876-13.878z" fill="#f6f9f9"/><g><path d="m416.191 0h-28.019c7.665 0 13.878 6.213 13.878 13.878v86.433c0 7.665-6.213 13.878-13.878 13.878h28.019c7.665 0 13.878-6.213 13.878-13.878v-86.433c.001-7.665-6.213-13.878-13.878-13.878z" fill="#d8e2f1"/></g><path d="m270.812 399.211-28.417-1.672c-7.255 0-7.574 33.992-7.574 33.992v20.809c0 11.686 9.473 21.159 21.159 21.159 11.686 0 21.159-9.473 21.159-21.159v-20.809c0 .001.929-32.32-6.327-32.32z" fill="#eaac9d"/><path d="m256 438.4c-56.39 0-102.103-45.713-102.103-102.103v-61.755c0-1.483 1.206-2.679 2.689-2.682 47.256-.087 89.021-6.856 126.275-30.929 1.113-.719 2.601-.489 3.398.569 16.823 22.334 39.769 28.515 69.169 30.216 1.499.087 2.676 1.318 2.676 2.82v61.762c-.001 56.388-45.714 102.102-102.104 102.102z" fill="#ffcbbe"/><path d="m355.427 271.715c-8.651-.501-16.739-1.395-24.28-2.968v67.55c0 51.82-38.606 94.619-88.625 101.216 4.411.582 8.909.887 13.478.887 56.39 0 102.103-45.713 102.103-102.103v-61.762c0-1.502-1.177-2.733-2.676-2.82z" fill="#eaac9d"/><g><g><path d="m210.539 343.875c-4.267 0-7.726-3.459-7.726-7.726v-5.945c0-4.268 3.459-7.726 7.726-7.726s7.726 3.459 7.726 7.726v5.945c0 4.267-3.459 7.726-7.726 7.726z" fill="#365e7d"/></g><g><path d="m301.461 343.875c-4.268 0-7.726-3.459-7.726-7.726v-5.945c0-4.268 3.459-7.726 7.726-7.726 4.268 0 7.726 3.459 7.726 7.726v5.945c.001 4.267-3.458 7.726-7.726 7.726z" fill="#365e7d"/></g></g><g><path d="m256 394.563c-11.326 0-22.647-3.12-33.894-9.361-3.731-2.07-5.077-6.774-3.006-10.505 2.07-3.73 6.772-5.076 10.505-3.006 17.76 9.856 35.028 9.856 52.79 0 3.731-2.07 8.435-.724 10.505 3.006 2.07 3.731.724 8.435-3.006 10.505-11.244 6.24-22.571 9.361-33.894 9.361z" fill="#da4a54"/></g><g><g><path d="m119.4 94.615c-2.032 0-4.003-.802-5.463-2.263-1.755-1.755-2.56-4.245-2.164-6.694l3.608-22.354c.259-1.603 1.016-3.084 2.164-4.232l37.233-37.233c1.449-1.449 3.414-2.263 5.463-2.263s4.015.814 5.463 2.263l18.747 18.747c3.018 3.017 3.018 7.909 0 10.927l-37.233 37.233c-1.148 1.148-2.629 1.906-4.232 2.164l-22.354 3.607c-.412.065-.823.098-1.232.098zm22.354-11.334h.01zm-11.516-15.05-1.505 9.325 9.324-1.505 30.004-30.004-7.82-7.82z" fill="#e49542"/></g><path d="m288.33 33.733c-8.905-12.602-21.239-16.933-35.67-12.525-3.249.993-5.469 3.992-5.469 7.389v24.596c-1.81-.506-3.709-.797-5.678-.797-11.651 0-21.13 9.479-21.13 21.131s9.479 21.13 21.13 21.13c11.718 0 21.131-9.59 21.131-21.13v-38.548c5.23-.2 9.22 2.231 13.066 7.672 2.462 3.486 7.285 4.314 10.769 1.851s4.313-7.284 1.851-10.769zm-46.817 45.472c-3.131 0-5.678-2.547-5.678-5.678s2.547-5.678 5.678-5.678 5.678 2.547 5.678 5.678-2.548 5.678-5.678 5.678z" fill="#80b4fb"/><g><path d="m360.934 89.065c-1.088 0-2.174-.229-3.187-.688-13.521-6.122-36.204-19.377-36.204-39.363 0-13.395 10.348-23.889 23.559-23.889 6.906 0 12.173 2.271 15.832 4.705 3.66-2.434 8.927-4.705 15.833-4.705 13.211 0 23.559 10.493 23.559 23.889 0 19.986-22.684 33.241-36.205 39.364-1.013.457-2.1.687-3.187.687zm-15.832-48.488c-5.322 0-8.107 4.244-8.107 8.436 0 7.62 8.879 16.387 23.939 23.784 15.06-7.397 23.94-16.164 23.94-23.784 0-4.192-2.785-8.436-8.107-8.436-6.309 0-9.566 4.067-9.597 4.108-1.486 2.031-3.795 3.344-6.299 3.283-2.493-.047-4.727-1.178-6.137-3.228-.437-.524-3.695-4.163-9.632-4.163z" fill="#da4a54"/></g></g></g></svg>