<svg id="Capa_1" enable-background="new 0 0 512 512" height="512" viewBox="0 0 512 512" width="512" xmlns="http://www.w3.org/2000/svg"><g><path d="m15.997 512c-2.638 0-5.307-.696-7.727-2.161-4.617-2.795-7.27-7.954-7.27-13.353 0-34.043 0-258.941 0-319.494 0-8.284 6.716-14.992 15-14.992h225c8.284 0 15 6.716 15 15v260c0 8.284-6.716 15-15 15h-158.787l-55.606 55.606c-2.869 2.87-6.706 4.394-10.61 4.394z" fill="#a4e9ff"/><g><path d="m128.5 162v290h112.5c8.284 0 15-6.716 15-15v-260c0-8.284-6.716-15-15-15z" fill="#91bbff"/></g><g><path d="m496.003 350c-3.903 0-7.74-1.524-10.609-4.394l-55.607-55.606h-158.787c-8.284 0-15-6.716-15-15v-260c0-8.284 6.716-15 15-15h225c8.284 0 15 6.716 15 15v319.478c0 5.398-2.652 10.566-7.27 13.362-2.42 1.464-5.089 2.16-7.727 2.16z" fill="#bee75e"/><g><path d="m496 0h-112.5v290h46.287l55.606 55.606c2.869 2.87 6.706 4.394 10.609 4.394 2.638 0 5.307-.696 7.727-2.161 4.618-2.796 7.271-7.963 7.271-13.362v-319.477c0-8.284-6.715-15-15-15z" fill="#00da80"/></g><path d="m448.5 130c8.284 0 15-6.716 15-15s-6.716-15-15-15h-50v-25c0-8.284-6.716-15-15-15s-15 6.716-15 15v25h-50c-8.284 0-15 6.716-15 15s6.716 15 15 15h10.978c3.123 23.867 13.59 45.455 29.054 62.414-10.69 4.857-22.545 7.586-35.032 7.586-8.284 0-15 6.716-15 15s6.716 15 15 15c21.972 0 42.521-6.198 60-16.931 17.479 10.733 38.028 16.931 60 16.931 8.284 0 15-6.716 15-15s-6.716-15-15-15c-12.487 0-24.342-2.729-35.032-7.586 15.464-16.959 25.932-38.547 29.054-62.414zm-65 45.148c-12.068-12.039-20.523-27.681-23.648-45.148h47.295c-3.124 17.467-11.579 33.11-23.647 45.148z" fill="#5e54ac"/></g><path d="m197.801 371.704-52.092-138.034c-.053-.138-.106-.276-.163-.413-2.815-6.84-9.41-11.256-16.806-11.256-.006 0-.014 0-.021 0-7.402.008-13.997 4.44-16.8 11.292-.047.113-.092.227-.135.34l-52.568 138.028c-2.948 7.742.938 16.408 8.679 19.356 7.746 2.95 16.408-.938 19.356-8.679l9.413-24.715h63.757l9.311 24.673c2.268 6.007 7.975 9.708 14.037 9.708 1.759 0 3.55-.312 5.293-.97 7.751-2.925 11.664-11.579 8.739-19.33zm-89.711-44.08 20.599-54.086 20.411 54.086z" fill="#5e54ac"/><g><g><path d="m448.5 130c8.284 0 15-6.716 15-15s-6.716-15-15-15h-50v-25c0-8.284-6.716-15-15-15v70h23.648c-3.125 17.467-11.58 33.11-23.648 45.148v37.921c17.479 10.733 38.028 16.931 60 16.931 8.284 0 15-6.716 15-15s-6.716-15-15-15c-12.487 0-24.342-2.729-35.032-7.586 15.464-16.959 25.932-38.547 29.054-62.414z" fill="#453d81"/></g></g><g><path d="m197.801 371.704-52.092-138.034c-.053-.138-.106-.276-.163-.413-2.815-6.84-9.41-11.256-16.806-11.256-.006 0-.014 0-.021 0-.074 0-.146.007-.219.008v52.026l.189-.497 20.411 54.086h-20.6v30h31.921l9.311 24.673c2.268 6.007 7.975 9.708 14.037 9.708 1.759 0 3.55-.312 5.293-.97 7.751-2.926 11.664-11.58 8.739-19.331z" fill="#453d81"/></g></g></svg>