<svg xmlns="http://www.w3.org/2000/svg" width="1273.737" height="182" viewBox="0 0 1273.737 182">
  <g id="cover" transform="translate(0 2.989)">
    <path id="Trazado_37" data-name="Trazado 37" d="M268.372,736.378V561.509c89.1.043,1172.047,1.6,1273.234.195l.132,97.424c-129.211-1.8-244.57-21.918-324.965-52.984l-.012.014c-.333-.139-.678-.272-1.016-.411-1.379-.535-2.752-1.068-4.1-1.609-71.265-26.83-181.5-9.53-143.719,27.727,1.89,1.505,3.649,3.037,5.26,4.591l.107.078-.024,0c8.161,7.888,12.607,16.375,12.607,25.225,0,41.605-98.143,75.329-219.205,75.329-79.706,0-149.467-14.618-187.834-36.477h-.006c-95.653-46.568-273.649-38.932-351.655,9.63h-.018C311.292,719.916,291.44,728.715,268.372,736.378Z" transform="translate(-268.001 -564.498)" fill="#e748f2" fill-rule="evenodd"/>
    <path id="Trazado_38" data-name="Trazado 38" d="M382.951,728.7l9.309-139.777c83.854.036,880.589,1.25,1164.234-.528,44.828-.281,76.362.186,91.225,0l6.767,65.722c-140.582-1.763-266.219-21.44-353.689-51.838l-.013.014c-.362-.136-.737-.266-1.106-.4-1.5-.524-2.994-1.045-4.456-1.575-77.537-26.253-197.471-9.325-156.368,27.13,2.057,1.473,3.971,2.972,5.723,4.493l.116.076-.026,0c8.879,7.718,13.716,16.022,13.716,24.682,0,40.711-106.78,73.709-238.5,73.709-86.72,0-162.621-14.3-204.364-35.692h-.007C611.448,649.149,408.048,721.2,382.951,728.7Z" transform="translate(-380.75 -590.259)" fill="rgba(198,191,213,0.28)" fill-rule="evenodd"/>
    <path id="Trazado_39" data-name="Trazado 39" d="M450.218,613.716c97.013.052,1141.1-2.292,1251.268-4.01v88.133c-140.686-2.2-312.287-29.929-399.822-67.8l-.013.017c-.362-.169-.738-.331-1.107-.5-1.5-.652-3-1.3-4.459-1.962-77.595-32.705-197.617-11.617-156.484,33.8q3.087,2.752,5.728,5.6l.116.095-.026.005c8.886,9.615,13.727,19.96,13.727,30.748,0,50.716-106.859,91.824-238.673,91.824-86.784,0-162.742-17.819-204.516-44.464h-.006c-104.148-56.766-288.2-47.287-288.2,0Z" transform="translate(-427.75 -610.651)" fill="rgba(190,180,210,0.14)" fill-rule="evenodd"/>
  </g>
</svg>
