<svg id="IconPhone" xmlns="http://www.w3.org/2000/svg" width="40" height="40" viewBox="0 0 40 40">
  <path id="Trazado_40" data-name="Trazado 40" d="M0,0H40V40H0Z" fill="none"/>
  <path id="Trazado_41" data-name="Trazado 41" d="M9.838,17.714A28.614,28.614,0,0,0,22.286,30.162l4.156-4.156a1.878,1.878,0,0,1,1.927-.453,21.547,21.547,0,0,0,6.743,1.077A1.894,1.894,0,0,1,37,28.519v6.592A1.894,1.894,0,0,1,35.111,37,32.108,32.108,0,0,1,3,4.889,1.894,1.894,0,0,1,4.889,3H11.5a1.894,1.894,0,0,1,1.889,1.889,21.458,21.458,0,0,0,1.077,6.743,1.9,1.9,0,0,1-.472,1.927Z" transform="translate(0 0)" fill="#e258ee" stroke="#000" stroke-width="1"/>
</svg>
